<svg width="20" height="20" viewBox="0 0 20 20" fill="none" xmlns="http://www.w3.org/2000/svg">
<path d="M10 6.25C9.00546 6.25 8.05163 6.64509 7.34837 7.34835C6.64511 8.05161 6.25002 9.00544 6.25002 10C6.25002 10.9946 6.64511 11.9484 7.34837 12.6517C8.05163 13.3549 9.00546 13.75 10 13.75C10.9946 13.75 11.9484 13.3549 12.6517 12.6517C13.3549 11.9484 13.75 10.9946 13.75 10C13.75 9.00544 13.3549 8.05161 12.6517 7.34835C11.9484 6.64509 10.9946 6.25 10 6.25ZM7.50002 10C7.50002 9.33696 7.76341 8.70108 8.23225 8.23224C8.70109 7.7634 9.33698 7.5 10 7.5C10.6631 7.5 11.2989 7.7634 11.7678 8.23224C12.2366 8.70108 12.5 9.33696 12.5 10C12.5 10.663 12.2366 11.2989 11.7678 11.7678C11.2989 12.2366 10.6631 12.5 10 12.5C9.33698 12.5 8.70109 12.2366 8.23225 11.7678C7.76341 11.2989 7.50002 10.663 7.50002 10ZM7.74702 19.734C8.48652 19.9105 9.24352 19.9995 10.0035 19.9995C10.7619 19.9987 11.5175 19.9091 12.255 19.7325C12.4489 19.6858 12.6237 19.5805 12.7556 19.4309C12.8874 19.2813 12.97 19.0947 12.992 18.8965L13.161 17.361C13.1896 17.0864 13.3152 16.831 13.5153 16.6408C13.7154 16.4506 13.9768 16.3381 14.2525 16.3235C14.436 16.3155 14.6185 16.35 14.7865 16.4235L16.19 17.039C16.312 17.0939 16.4442 17.1227 16.578 17.1235C16.7118 17.1244 16.8443 17.0973 16.967 17.044C17.0905 16.9915 17.201 16.9135 17.292 16.815C18.324 15.7026 19.0944 14.3738 19.547 12.9255C19.6063 12.7334 19.6044 12.5276 19.5417 12.3366C19.479 12.1455 19.3586 11.9787 19.197 11.859L17.95 10.939C17.8015 10.8311 17.6806 10.6896 17.5973 10.5261C17.5139 10.3625 17.4705 10.1816 17.4705 9.998C17.4705 9.81444 17.5139 9.63348 17.5973 9.46993C17.6806 9.30638 17.8015 9.16488 17.95 9.057L19.193 8.139C19.355 8.01913 19.4758 7.85184 19.5385 7.66031C19.6012 7.46878 19.6028 7.26248 19.543 7.07C19.0903 5.62154 18.3189 4.29286 17.2855 3.1815C17.1486 3.03516 16.9696 2.93492 16.7733 2.89462C16.577 2.85432 16.373 2.87594 16.1895 2.9565L14.7865 3.5745C14.6415 3.64 14.4835 3.6745 14.3235 3.6745C14.0355 3.67394 13.7579 3.56708 13.5438 3.37442C13.3297 3.18176 13.1943 2.91685 13.1635 2.6305L12.9935 1.1005C12.9718 0.899692 12.8878 0.710708 12.7533 0.559999C12.6188 0.409289 12.4406 0.304398 12.2435 0.260004C11.5097 0.0961838 10.7608 0.00921487 10.009 0.00050354C9.25205 0.00924006 8.49803 0.0963718 7.75902 0.260504C7.5622 0.304645 7.3841 0.409199 7.24962 0.559542C7.11515 0.709885 7.03102 0.898498 7.00902 1.099L6.83902 2.63C6.80694 2.91681 6.67022 3.18171 6.45502 3.374C6.2354 3.56057 5.95859 3.66643 5.67052 3.674C5.51164 3.6739 5.3545 3.64087 5.20902 3.577L3.80902 2.959C3.62491 2.87772 3.42006 2.8558 3.22292 2.8963C3.02578 2.9368 2.84616 3.03771 2.70902 3.185C1.67705 4.2966 0.906597 5.62482 0.454019 7.0725C0.394232 7.2649 0.395806 7.47114 0.458522 7.6626C0.521238 7.85407 0.641987 8.02126 0.804019 8.141L2.04802 9.059C2.27025 9.22325 2.42729 9.46073 2.49143 9.72952C2.55556 9.99831 2.52265 10.2811 2.39852 10.528C2.31597 10.6917 2.19607 10.8337 2.04852 10.9425L0.803519 11.862C0.641628 11.9816 0.520963 12.1487 0.45825 12.3399C0.395538 12.5312 0.393884 12.7372 0.453519 12.9295C0.905296 14.3786 1.67581 15.7081 2.70852 16.8205C2.84494 16.9677 3.0239 17.0687 3.22045 17.1094C3.417 17.1501 3.62135 17.1285 3.80502 17.0475L5.21402 16.429C5.35952 16.365 5.51652 16.332 5.67552 16.332H5.67952C5.96644 16.3324 6.2432 16.4383 6.45711 16.6295C6.67101 16.8207 6.80712 17.0839 6.83952 17.369L7.00852 18.8975C7.03053 19.096 7.11327 19.2829 7.24544 19.4326C7.37762 19.5823 7.55278 19.6876 7.74702 19.734ZM11.779 18.5615C10.609 18.8115 9.39902 18.8115 8.22902 18.5615L8.07702 17.2305C8.01093 16.6399 7.72975 16.0943 7.2871 15.6977C6.84445 15.3012 6.27131 15.0815 5.67702 15.0805H5.67202C5.34057 15.0791 5.01252 15.1473 4.70902 15.2805L3.48602 15.817C2.69266 14.9222 2.08733 13.877 1.70602 12.7435L2.78852 11.9435C3.09357 11.7186 3.34153 11.4251 3.51241 11.0868C3.68329 10.7485 3.77232 10.3748 3.77232 9.99575C3.77232 9.61673 3.68329 9.24301 3.51241 8.9047C3.34153 8.56639 3.09357 8.27294 2.78852 8.048L1.70652 7.248C2.08855 6.11581 2.69401 5.07184 3.48702 4.178L4.70302 4.714C5.00701 4.84882 5.33597 4.91816 5.66852 4.9175H5.67352C6.26922 4.91627 6.84363 4.69581 7.28719 4.29817C7.73076 3.90053 8.01244 3.35353 8.07852 2.7615L8.22852 1.4315C8.8151 1.31396 9.41132 1.25103 10.0095 1.2435C10.603 1.251 11.1945 1.3135 11.7765 1.431L11.9265 2.7605C11.9907 3.3525 12.2711 3.9 12.714 4.29804C13.1568 4.69608 13.7311 4.91666 14.3265 4.9175C14.6624 4.92544 14.9954 4.85526 15.2995 4.7125L16.5145 4.177C17.308 5.07077 17.9137 6.11497 18.2955 7.2475L17.217 8.044C16.9098 8.26793 16.6598 8.56129 16.4875 8.90016C16.3151 9.23903 16.2253 9.61383 16.2253 9.994C16.2253 10.3742 16.3151 10.749 16.4875 11.0878C16.6598 11.4267 16.9098 11.7201 17.217 11.944L18.2995 12.744C17.9173 13.876 17.312 14.9199 16.5195 15.814L15.2995 15.279C14.9522 15.1249 14.5734 15.0551 14.1939 15.0754C13.8145 15.0956 13.4452 15.2052 13.1163 15.3954C12.7873 15.5855 12.5079 15.8507 12.301 16.1694C12.0941 16.4881 11.9654 16.8511 11.9255 17.229L11.779 18.5615Z" fill="#E8F1F2"/>
</svg>
